<svg xmlns="http://www.w3.org/2000/svg" viewBox="0 0 240 64" fill="none">
  <rect x="2" y="6" width="52" height="52" rx="16" fill="url(#brandGrad)"/>
  <path d="M28 17C23.5817 17 20 20.5817 20 25V30H36V25C36 20.5817 32.4183 17 28 17ZM23 30V25C23 22.2386 25.2386 20 28 20C30.7614 20 33 22.2386 33 25V30H23Z" fill="white"/>
  <rect x="17" y="28" width="22" height="19" rx="5" fill="white"/>
  <circle cx="28" cy="36" r="2.5" fill="#2563EB"/>
  <path d="M28 38.5V42" stroke="#2563EB" stroke-width="2" stroke-linecap="round"/>
  <path d="M38 18L44 14" stroke="#F97316" stroke-width="3" stroke-linecap="round"/>
  <circle cx="44" cy="14" r="2" fill="#F97316"/>
  <text x="64" y="31" font-family="'Plus Jakarta Sans', system-ui, -apple-system, sans-serif" font-weight="800" font-size="20" fill="#0F172A" letter-spacing="-0.5">AutoLock<tspan fill="#2563EB">Pro</tspan></text>
  <text x="64" y="47" font-family="'Plus Jakarta Sans', system-ui, -apple-system, sans-serif" font-weight="700" font-size="11" fill="#F97316" letter-spacing="2.5">USA DISPATCH</text>
  <defs>
    <linearGradient id="brandGrad" x1="2" y1="6" x2="54" y2="58" gradientUnits="userSpaceOnUse">
      <stop stop-color="#2563EB"/>
      <stop offset="1" stop-color="#06B6D4"/>
    </linearGradient>
  </defs>
</svg>
